HIERARCHY
ROOT Hips
{
	OFFSET 0.000000 0.000000 0.000000
	CHANNELS 6 Xposition Yposition Zposition Xrotation Yrotation Zrotation
	JOINT LeftUpLeg_virtual
	{
		OFFSET 0.000000 0.000000 0.000000
		CHANNELS 3 Xrotation Yrotation Zrotation
		JOINT LeftUpLeg
		{
			OFFSET 10.205400 -3.823500 0.155100
			CHANNELS 3 Xrotation Yrotation Zrotation
			JOINT LeftLeg
			{
				OFFSET 0.708757 -12.982077 0.567790
				CHANNELS 3 Xrotation Yrotation Zrotation
				JOINT LeftFoot
				{
					OFFSET -0.708756 -10.717838 -2.184338
					CHANNELS 3 Xrotation Yrotation Zrotation
					JOINT LeftToeBase
					{
						OFFSET 0.108149 -7.191104 7.560241
						CHANNELS 3 Xrotation Yrotation Zrotation
						JOINT LeftToe_End
						{
							OFFSET 0.070230 0.081724 4.490308
							CHANNELS 3 Xrotation Yrotation Zrotation
							End Site
							{
								OFFSET 0 0 0
							}
						}
					}
				}
			}
		}
	}
	JOINT RightUpLeg_virtual
	{
		OFFSET 0.000000 0.000000 0.000000
		CHANNELS 3 Xrotation Yrotation Zrotation
		JOINT RightUpLeg
		{
			OFFSET -10.205400 -3.823500 0.005500
			CHANNELS 3 Xrotation Yrotation Zrotation
			JOINT RightLeg
			{
				OFFSET -0.708756 -12.982134 0.610632
				CHANNELS 3 Xrotation Yrotation Zrotation
				JOINT RightFoot
				{
					OFFSET 0.708754 -10.717769 -1.945823
					CHANNELS 3 Xrotation Yrotation Zrotation
					JOINT RightToeBase
					{
						OFFSET -0.108140 -7.191069 7.372968
						CHANNELS 3 Xrotation Yrotation Zrotation
						JOINT RightToe_End
						{
							OFFSET -0.070227 0.081735 4.479403
							CHANNELS 3 Xrotation Yrotation Zrotation
							End Site
							{
								OFFSET 0 0 0
							}
						}
					}
				}
			}
		}
	}
	JOINT Spine_virtual
	{
		OFFSET 0.000000 0.000000 0.000000
		CHANNELS 3 Xrotation Yrotation Zrotation
		JOINT Spine
		{
			OFFSET 0.000000 6.876099 0.125700
			CHANNELS 3 Xrotation Yrotation Zrotation
			JOINT Spine1
			{
				OFFSET 0.000000 5.730043 0.104720
				CHANNELS 3 Xrotation Yrotation Zrotation
				JOINT Spine1_split
				{
					OFFSET 0.000000 5.730043 0.104720
					CHANNELS 3 Xrotation Yrotation Zrotation
					JOINT Spine2
					{
						OFFSET 0.000000 5.730043 0.104720
						CHANNELS 3 Xrotation Yrotation Zrotation
						JOINT Neck_virtual
						{
							OFFSET 0.000000 0.000000 0.000000
							CHANNELS 3 Xrotation Yrotation Zrotation
							JOINT Neck
							{
								OFFSET 0.000000 10.314075 0.188496
								CHANNELS 3 Xrotation Yrotation Zrotation
								JOINT Head
								{
									OFFSET 0.000000 7.643700 -2.377400
									CHANNELS 3 Xrotation Yrotation Zrotation
									JOINT HeadTop_End
									{
										OFFSET 0.000000 43.788605 -13.619600
										CHANNELS 3 Xrotation Yrotation Zrotation
										End Site
										{
											OFFSET 0 0 0
										}
									}
								}
							}
						}
						JOINT LeftShoulder_virtual
						{
							OFFSET 0.000000 0.000000 0.000000
							CHANNELS 3 Xrotation Yrotation Zrotation
							JOINT LeftShoulder
							{
								OFFSET 2.196100 4.412489 0.087492
								CHANNELS 3 Xrotation Yrotation Zrotation
								JOINT LeftShoulder_split
								{
									OFFSET 2.196100 4.412489 0.087492
									CHANNELS 3 Xrotation Yrotation Zrotation
									JOINT LeftArm
									{
										OFFSET 8.771219 -2.981674 -0.026999
										CHANNELS 3 Xrotation Yrotation Zrotation
										JOINT LeftForeArm
										{
											OFFSET 8.512804 0.000000 -0.000000
											CHANNELS 3 Xrotation Yrotation Zrotation
											JOINT LeftHand
											{
												OFFSET 18.484802 0.000000 -0.000000
												CHANNELS 3 Xrotation Yrotation Zrotation
												End Site
												{
													OFFSET 0 0 0
												}
											}
										}
									}
								}
							}
						}
						JOINT RightShoulder_virtual
						{
							OFFSET 0.000000 0.000000 0.000000
							CHANNELS 3 Xrotation Yrotation Zrotation
							JOINT RightShoulder
							{
								OFFSET -2.196100 4.412496 0.070690
								CHANNELS 3 Xrotation Yrotation Zrotation
								JOINT RightShoulder_split
								{
									OFFSET -2.196100 4.412496 0.070690
									CHANNELS 3 Xrotation Yrotation Zrotation
									JOINT RightArm
									{
										OFFSET -8.771282 -2.981682 -0.094208
										CHANNELS 3 Xrotation Yrotation Zrotation
										JOINT RightForeArm
										{
											OFFSET -8.494598 0.000000 0.000000
											CHANNELS 3 Xrotation Yrotation Zrotation
											JOINT RightHand
											{
												OFFSET -18.483803 0.000000 0.000001
												CHANNELS 3 Xrotation Yrotation Zrotation
												End Site
												{
													OFFSET 0 0 0
												}
											}
										}
									}
								}
							}
						}
					}
				}
			}
		}
	}
}
MOTION
Frames: 8
Frame Time: 0.03333333
0.391179 33.267372 0.554726 0.000000 0.000000 0.000000 -1.662925 2.744847 -5.862487 -14.858337 9.042413 24.161864 23.624151 10.276476 -0.259820 -9.091567 4.022900 -15.555848 4.630442 0.284034 -1.769770 0.000000 0.000000 0.000000 -0.802065 2.249737 -6.527427 7.791742 -1.107903 12.541963 8.022788 -2.950357 7.398938 -16.202766 1.226069 -11.645913 1.025965 -0.869201 -1.122078 0.000000 0.000000 0.000000 -1.577244 1.535554 -6.306758 1.689952 -1.327673 4.415647 1.262046 0.026804 5.730969 0.918884 1.101219 -0.134307 0.000000 0.000000 0.000000 -0.232672 0.438744 5.588745 0.045742 0.763238 -1.980776 1.852312 2.257033 -7.599153 0.000000 0.000000 0.000000 0.165352 0.547523 5.538096 4.458889 -10.887001 -4.224485 -0.909533 0.821363 -0.646298 4.228930 3.797210 -85.610868 -1.855755 -13.164979 0.562756 0.000000 0.000000 0.000000 0.673199 0.695904 5.516675 5.226815 3.300420 8.227247 -1.852383 2.565811 -2.121100 0.599848 4.474443 66.439723 1.419208 20.021926 1.556483 0.000000 0.000000 0.000000 
0.318027 33.271687 0.553406 0.000000 0.000000 0.000000 -1.616304 2.904691 -5.894895 -14.921952 8.999343 24.324633 23.611281 10.242634 -0.233680 -8.850940 3.979655 -15.694054 4.663020 0.303878 -1.899049 0.000000 0.000000 0.000000 -0.748358 2.377404 -6.554965 7.809858 -0.978991 12.763497 7.746316 -3.073021 7.330306 -16.172850 1.206414 -11.607169 0.985361 -0.843830 -1.126026 0.000000 0.000000 0.000000 -1.489028 1.721375 -6.372979 1.664163 -1.383970 4.437702 1.324044 0.022835 5.706868 0.947362 1.033435 -0.156774 0.000000 0.000000 0.000000 -0.225808 0.425267 5.565697 -0.114413 0.727291 -1.743454 1.538289 2.119225 -7.562911 0.000000 0.000000 0.000000 0.184748 0.524590 5.530126 4.456974 -10.862133 -4.294037 -0.839773 0.734386 -0.313088 4.110620 3.852407 -85.333119 -1.964000 -13.244810 0.414393 0.000000 0.000000 0.000000 0.647604 0.677465 5.499268 5.148615 3.450269 8.259783 -1.704567 2.665951 -2.174437 0.662566 4.461530 66.699830 1.312461 20.223895 1.597775 0.000000 0.000000 0.000000 
0.205638 33.277378 0.535818 0.000000 0.000000 0.000000 -1.523243 3.075555 -6.059537 -15.133194 8.841491 24.752834 23.672268 10.163755 -0.169121 -8.464280 3.874914 -15.918845 4.704227 0.321159 -2.010197 0.000000 0.000000 0.000000 -0.646149 2.517525 -6.700945 7.785265 -0.814399 13.198018 7.501528 -3.172649 7.332275 -16.110260 1.224428 -11.511002 0.939682 -0.826063 -1.167511 0.000000 0.000000 0.000000 -1.348487 1.888891 -6.543763 1.649312 -1.476836 4.505257 1.440780 0.006934 5.662920 0.986267 0.949889 -0.178332 0.000000 0.000000 0.000000 -0.153453 0.400600 5.523145 -0.460376 0.691283 -1.459332 0.654496 1.868893 -7.253406 0.000000 0.000000 0.000000 0.230574 0.492261 5.498126 4.450561 -10.863624 -4.337833 -0.808781 0.653470 -0.071956 3.780648 3.691062 -84.683376 -2.051708 -13.272010 0.267118 0.000000 0.000000 0.000000 0.653781 0.636032 5.463257 5.007897 3.565652 8.463030 -1.638913 2.692927 -2.261612 0.859018 5.037559 66.836359 1.264373 20.139554 1.614757 0.000000 0.000000 0.000000 
0.077857 33.278221 0.511103 0.000000 0.000000 0.000000 -1.406035 3.241371 -6.330580 -15.436487 8.591225 25.366214 23.777801 10.064361 -0.062259 -8.090220 3.747150 -16.206922 4.736331 0.330534 -2.087838 0.000000 0.000000 0.000000 -0.516030 2.663808 -6.950024 7.704530 -0.594830 13.790934 7.330113 -3.265733 7.386360 -16.069075 1.237397 -11.439167 0.880272 -0.817811 -1.212258 0.000000 0.000000 0.000000 -1.167753 2.018350 -6.788910 1.624912 -1.591507 4.599913 1.610631 -0.011606 5.600352 1.006034 0.912824 -0.210180 0.000000 0.000000 0.000000 -0.016038 0.365547 5.456246 -0.941622 0.652201 -1.152813 -0.713257 1.544969 -6.725877 0.000000 0.000000 0.000000 0.305966 0.454713 5.439212 4.436890 -10.875531 -4.368882 -0.845903 0.495901 0.045976 3.273252 3.288188 -83.764108 -2.088344 -13.262983 0.133108 0.000000 0.000000 0.000000 0.697471 0.582147 5.407119 4.805126 3.640376 8.839785 -1.627620 2.729102 -2.367075 1.174816 6.115857 66.797372 1.283249 19.750132 1.612565 0.000000 0.000000 0.000000 
-0.053417 33.270287 0.488096 0.000000 0.000000 0.000000 -1.251037 3.424838 -6.669240 -15.802420 8.272209 26.085806 23.893863 9.944007 0.079781 -7.846962 3.607432 -16.594389 4.705961 0.329612 -2.105251 0.000000 0.000000 0.000000 -0.355773 2.816204 -7.263182 7.590685 -0.297544 14.470456 7.242608 -3.368894 7.472466 -16.090761 1.202835 -11.462759 0.829722 -0.820724 -1.219527 0.000000 0.000000 0.000000 -0.976059 2.116182 -7.071416 1.574162 -1.722135 4.699715 1.824115 -0.026134 5.514554 1.014676 0.905962 -0.228650 0.000000 0.000000 0.000000 0.169097 0.325741 5.358038 -1.473071 0.614834 -0.848419 -2.412355 1.195740 -6.064107 0.000000 0.000000 0.000000 0.412667 0.418337 5.350462 4.410245 -10.870968 -4.410257 -0.932682 0.210180 0.067362 2.658952 2.654313 -82.672712 -2.036147 -13.265579 0.032876 0.000000 0.000000 0.000000 0.782952 0.523318 5.326849 4.554918 3.661016 9.357871 -1.674117 2.722929 -2.445732 1.618307 7.592496 66.533986 1.369049 19.057876 1.590096 0.000000 0.000000 0.000000 
-0.180296 33.253059 0.480621 0.000000 0.000000 0.000000 -1.050871 3.634457 -7.032505 -16.210790 7.911687 26.837012 24.049274 9.808850 0.234310 -7.746089 3.475185 -17.106625 4.609203 0.316492 -2.067037 0.000000 0.000000 0.000000 -0.158484 2.955604 -7.599246 7.451724 0.089372 15.183015 7.186841 -3.460595 7.569408 -16.151359 1.099770 -11.605221 0.783050 -0.829946 -1.179334 0.000000 0.000000 0.000000 -0.789481 2.181482 -7.358316 1.472745 -1.859230 4.785952 2.067164 -0.032890 5.403213 1.027419 0.881996 -0.224435 0.000000 0.000000 0.000000 0.379143 0.283344 5.226866 -1.986977 0.591321 -0.566453 -4.274769 0.845855 -5.326618 0.000000 0.000000 0.000000 0.551703 0.382841 5.231997 4.365510 -10.825347 -4.478724 -0.986370 -0.166640 0.054196 2.027909 1.887431 -81.505166 -1.886420 -13.341686 -0.032346 0.000000 0.000000 0.000000 0.912417 0.466594 5.222153 4.274308 3.623356 9.979366 -1.803590 2.669931 -2.495670 2.170344 9.286784 66.008014 1.508416 18.104950 1.553290 0.000000 0.000000 0.000000 
-0.299082 33.228565 0.482307 0.000000 0.000000 0.000000 -0.795208 3.825857 -7.388876 -16.642342 7.540734 27.578967 24.279559 9.668374 0.388859 -7.756664 3.383496 -17.725408 4.493685 0.296646 -1.996018 0.000000 0.000000 0.000000 0.076229 3.043227 -7.926881 7.261067 0.551530 15.904109 7.105719 -3.504702 7.662724 -16.191698 0.923811 -11.832724 0.690247 -0.838676 -1.107064 0.000000 0.000000 0.000000 -0.607791 2.220722 -7.631144 1.317453 -2.001404 4.846114 2.330477 -0.033331 5.267073 1.048735 0.854851 -0.214095 0.000000 0.000000 0.000000 0.595509 0.243834 5.069937 -2.438348 0.569952 -0.312899 -6.132248 0.471355 -4.563184 0.000000 0.000000 0.000000 0.717056 0.347595 5.088080 4.303960 -10.743281 -4.574153 -0.997687 -0.583683 0.053518 1.413574 1.098921 -80.322048 -1.643454 -13.501494 -0.075825 0.000000 0.000000 0.000000 1.074551 0.420412 5.100971 3.986647 3.548412 10.660848 -2.010967 2.608316 -2.493288 2.816120 11.040151 65.234857 1.665797 16.981437 1.513773 0.000000 0.000000 0.000000 
-0.403814 33.198715 0.497078 0.000000 0.000000 0.000000 -0.499770 3.952911 -7.719579 -17.082978 7.168904 28.279090 24.565303 9.557481 0.539315 -7.870628 3.395254 -18.406009 4.435961 0.275814 -1.932879 0.000000 0.000000 0.000000 0.360089 3.049472 -8.240063 7.033646 1.025585 16.620186 6.962393 -3.467384 7.747593 -16.152718 0.684127 -12.098884 0.497959 -0.838768 -1.032615 0.000000 0.000000 0.000000 -0.428397 2.239330 -7.891796 1.124225 -2.136579 4.882125 2.608631 -0.028924 5.111801 1.040698 0.834329 -0.204803 0.000000 0.000000 0.000000 0.796857 0.212301 4.900489 -2.806043 0.541851 -0.067143 -7.838990 0.052092 -3.799388 0.000000 0.000000 0.000000 0.908303 0.313077 4.930346 4.228291 -10.635724 -4.684325 -0.966676 -0.950769 0.033281 0.879166 0.378975 -79.148218 -1.341796 -13.779621 -0.118262 0.000000 0.000000 0.000000 1.248411 0.385606 4.972382 3.707136 3.468732 11.372940 -2.261139 2.548056 -2.452490 3.522138 12.753864 64.259478 1.812594 15.785872 1.478404 0.000000 0.000000 0.000000 
